<svg width="25" height="22" viewBox="0 0 25 22" fill="none" xmlns="http://www.w3.org/2000/svg">
<path d="M25 2.60446C24.0703 3.04615 23.0797 3.33892 22.0469 3.48108C23.1094 2.794 23.9203 1.71431 24.3016 0.412923C23.3109 1.05262 22.2172 1.50446 21.0516 1.75662C20.1109 0.671846 18.7703 0 17.3078 0C14.4703 0 12.1859 2.49446 12.1859 5.55246C12.1859 5.99246 12.2203 6.41554 12.3047 6.81831C8.04375 6.59323 4.27344 4.38138 1.74062 1.012C1.29844 1.84292 1.03906 2.794 1.03906 3.81785C1.03906 5.74031 1.95312 7.44446 3.31562 8.43108C2.49219 8.41415 1.68438 8.15523 1 7.74738C1 7.76431 1 7.78631 1 7.80831C1 10.5058 2.77656 12.7465 5.10625 13.2626C4.68906 13.3862 4.23438 13.4454 3.7625 13.4454C3.43438 13.4454 3.10312 13.4251 2.79219 13.3506C3.45625 15.5489 5.34063 17.1651 7.58125 17.2175C5.8375 18.6949 3.62344 19.5851 1.22656 19.5851C0.80625 19.5851 0.403125 19.5648 0 19.5089C2.27031 21.0946 4.96094 22 7.8625 22C17.2938 22 22.45 13.5385 22.45 6.204C22.45 5.95862 22.4422 5.72169 22.4312 5.48646C23.4484 4.70462 24.3031 3.72815 25 2.60446Z" fill="white"/>
</svg>
