<svg width="30" height="30" viewBox="0 0 30 30" fill="none" xmlns="http://www.w3.org/2000/svg">
<path d="M29.5 15C29.5 23.0081 23.0081 29.5 15 29.5C6.99187 29.5 0.5 23.0081 0.5 15C0.5 6.99187 6.99187 0.5 15 0.5C23.0081 0.5 29.5 6.99187 29.5 15Z" fill="white" stroke="black"/>
<path d="M21.5223 11.8297L21.5278 11.8242L19.4164 21.7713C19.3391 22.118 19.2286 22.1844 19.2092 22.1932C19.1923 22.2009 19.0863 22.2359 18.8211 22.0911L15.0967 19.3462L14.757 19.0959L14.4531 19.3886L12.7974 20.9837L12.986 18.2796L19.7844 12.1378C19.893 12.0416 20.0531 11.8634 20.0618 11.6088C20.0732 11.2772 19.8357 11.0864 19.6506 11.0197C19.48 10.9582 19.3028 10.9684 19.1606 10.9999C19.0111 11.033 18.8586 11.0983 18.7139 11.1936L10.325 16.4752L6.84498 15.3896C6.84462 15.3895 6.84426 15.3894 6.8439 15.3893C6.77635 15.3678 6.72394 15.346 6.68405 15.3263C6.75787 15.2729 6.87364 15.208 7.04478 15.141C7.04512 15.1409 7.04547 15.1408 7.04582 15.1406L21.5006 9.56735C21.714 9.49155 21.8057 9.55036 21.8306 9.57458C21.8616 9.60485 21.9673 9.75294 21.8774 10.1727L21.5223 11.8297ZM19.3885 11.9744C19.3884 11.9745 19.3871 11.9747 19.3844 11.9748C19.3872 11.9744 19.3885 11.9743 19.3885 11.9744ZM19.1318 11.3789C19.1321 11.3789 19.1301 11.3812 19.1252 11.3858C19.1291 11.3812 19.1315 11.3789 19.1318 11.3789ZM6.59149 15.4117C6.59146 15.4117 6.59175 15.4111 6.59247 15.41C6.59189 15.4111 6.59153 15.4117 6.59149 15.4117Z" fill="black" stroke="black"/>
</svg>
