<svg width="36" height="26" viewBox="0 0 36 26" fill="none" xmlns="http://www.w3.org/2000/svg">
<path d="M34.7745 4.19456L34.775 4.19662C35.1454 5.59203 35.3298 7.78367 35.4188 9.66276C35.463 10.5947 35.4833 11.4371 35.4925 12.0464C35.4971 12.351 35.4989 12.5971 35.4996 12.7667C35.5 12.8515 35.5 12.9172 35.5 12.9615L35.4999 13.0117L35.4999 13.0243L35.4999 13.0273L35.4999 13.028V13.0281L35.9999 13.0306L35.4999 13.0281V13.0306V13.0308V13.0315L35.4998 13.0345L35.4998 13.047L35.4997 13.097C35.4995 13.1411 35.4991 13.2065 35.4984 13.2909C35.497 13.4598 35.4941 13.7048 35.4884 14.008C35.4768 14.6147 35.4538 15.4535 35.4078 16.382C35.3151 18.2527 35.131 20.439 34.7743 21.8377C34.4022 23.2603 33.3167 24.3738 31.9531 24.7529C31.3011 24.9297 30.1146 25.0709 28.6592 25.1787C27.2169 25.2855 25.5524 25.3569 23.9712 25.4046C22.3907 25.4523 20.8975 25.4761 19.7992 25.4881C19.2501 25.494 18.8 25.497 18.4872 25.4985C18.3309 25.4993 18.2089 25.4996 18.126 25.4998L18.0318 25.5L18.0078 25.5L18.0018 25.5H18.0004H18L17.9999 26L17.9998 25.5H17.9995H17.998L17.992 25.5L17.9682 25.5L17.8742 25.4998C17.7916 25.4996 17.6699 25.4992 17.5139 25.4985C17.202 25.4969 16.7529 25.4938 16.205 25.4876C15.1091 25.4752 13.6188 25.4504 12.0403 25.4008C10.461 25.3512 8.79774 25.277 7.35451 25.166C5.89707 25.0539 4.70711 24.9071 4.04895 24.7232L4.04823 24.723C2.6836 24.3439 1.5972 23.2296 1.22524 21.806C0.868962 20.4234 0.684796 18.238 0.592052 16.3629C0.546034 15.4325 0.523007 14.5908 0.511494 13.9818C0.505739 13.6774 0.502865 13.4313 0.50143 13.2616C0.500713 13.1768 0.500355 13.1111 0.500177 13.0667L0.500022 13.0165L0.500003 13.0039L0.5 13.0009L0.5 13.0002L0.5 13L0 13L0.5 13V12.9998L0.5 12.9991L0.500003 12.9961L0.500022 12.9836L0.500177 12.9336C0.500355 12.8895 0.500713 12.8241 0.50143 12.7396C0.502865 12.5707 0.505738 12.3258 0.511493 12.0225C0.523006 11.4158 0.546032 10.577 0.59205 9.64853C0.684759 7.77787 0.868868 5.59184 1.22544 4.19327C1.59746 2.76944 2.71389 1.62541 4.04775 1.24677C4.70008 1.07012 5.88596 0.929052 7.34041 0.821343C8.78263 0.71454 10.4472 0.643097 12.0284 0.59539C13.6088 0.547707 15.102 0.523852 16.2004 0.511923C16.7495 0.505959 17.1996 0.502978 17.5123 0.501488C17.6687 0.500743 17.7907 0.500371 17.8735 0.500185L17.9678 0.500023L17.9917 0.500003L17.9977 0.5L17.9992 0.5L17.9996 0.5L17.9997 0L17.9997 0.5L18.0001 0.5L18.0016 0.5L18.0075 0.500003L18.0315 0.500024L18.1257 0.500193C18.2085 0.500386 18.3305 0.500773 18.4869 0.501547C18.7996 0.503096 19.2497 0.506194 19.7987 0.512394C20.897 0.524795 22.3901 0.549594 23.9704 0.599161C25.5516 0.648755 27.2158 0.723018 28.6577 0.834022C30.1141 0.946153 31.2996 1.09296 31.9496 1.27645L31.9516 1.27701C33.3162 1.65612 34.403 2.77047 34.7745 4.19456Z" fill="white" stroke="black"/>
<path d="M14.4118 18.5671L23.7823 13L14.4118 7.43295V18.5671Z" fill="black"/>
</svg>
