<svg width="25" height="26" viewBox="0 0 25 26" fill="none" xmlns="http://www.w3.org/2000/svg">
<path d="M22.3438 2.75849C18.8079 -0.919498 13.0545 -0.919498 9.5186 2.75849C7.80566 4.54015 6.8624 6.90909 6.8624 9.42877C6.8624 11.7241 7.64556 13.8941 9.07983 15.6093L7.9998 16.7327L6.89912 15.5878C6.77852 15.4623 6.61489 15.3918 6.44434 15.3918C6.27378 15.3918 6.11016 15.4623 5.98955 15.5878L0.832764 20.9518C0.295752 21.5103 0 22.2529 0 23.0428C0 23.8327 0.295752 24.5753 0.832666 25.1338C1.36968 25.6924 2.08359 26 2.84292 26C3.60225 26 4.31626 25.6924 4.85317 25.1339L10.01 19.77C10.1306 19.6445 10.1984 19.4743 10.1984 19.2969C10.1984 19.1195 10.1306 18.9493 10.01 18.8239L8.90933 17.679L9.9897 16.5552C11.6886 18.0898 13.8097 18.8575 15.9312 18.8575C18.2535 18.8575 20.5759 17.938 22.3438 16.0991C24.0566 14.3174 25 11.9486 25 9.42887C25 6.90904 24.0567 4.54015 22.3438 2.75849ZM3.9436 24.1877C3.64961 24.4935 3.25874 24.6619 2.84292 24.6619C2.42715 24.6619 2.03623 24.4935 1.74224 24.1877C1.44829 23.8819 1.28633 23.4753 1.28633 23.0429C1.28633 22.6104 1.44829 22.2038 1.74229 21.898L4.61992 18.9047L6.82129 21.1944L3.9436 24.1877ZM7.73096 20.2483L5.52959 17.9585L6.44434 17.007L8.6457 19.2968L7.73096 20.2483ZM21.4342 15.1529C18.3999 18.3093 13.4626 18.3093 10.4282 15.1529C8.9583 13.6239 8.14878 11.5911 8.14878 9.42877C8.14878 7.26644 8.9583 5.23363 10.4282 3.70471C11.9454 2.12657 13.9383 1.33745 15.9313 1.33745C17.9241 1.33745 19.9171 2.12647 21.4343 3.70471C22.9042 5.23363 23.7137 7.26649 23.7137 9.42877C23.7137 11.591 22.9042 13.6239 21.4342 15.1529Z" fill="white"/>
<path d="M20.3727 4.80867C17.9236 2.26126 13.9387 2.26115 11.4896 4.80867C9.04057 7.35618 9.04057 11.5012 11.4896 14.0487C12.7142 15.3224 14.3226 15.9593 15.9312 15.9593C17.5397 15.9593 19.1482 15.3224 20.3728 14.0487V14.0486C22.8218 11.5012 22.8218 7.35618 20.3727 4.80867ZM19.4631 13.1026C17.5156 15.1284 14.3468 15.1284 12.3992 13.1026C10.4517 11.0768 10.4517 7.78068 12.3992 5.75488C13.373 4.74183 14.6519 4.23556 15.9312 4.23556C17.2101 4.23556 18.4895 4.74213 19.4631 5.75488C21.4107 7.78063 21.4107 11.0768 19.4631 13.1026Z" fill="white"/>
</svg>
