<svg width="25" height="25" viewBox="0 0 25 25" fill="none" xmlns="http://www.w3.org/2000/svg">
<g clip-path="url(#clip0_2_33)">
<g filter="url(#filter0_d_2_33)">
<path d="M21.875 0H3.125C1.40156 0 0 1.40156 0 3.125V21.875C0 23.5984 1.40156 25 3.125 25H21.875C23.5984 25 25 23.5984 25 21.875V3.125C25 1.40156 23.5984 0 21.875 0Z" fill="white"/>
<path d="M3.125 0.5H21.875C23.3223 0.5 24.5 1.6777 24.5 3.125V21.875C24.5 23.3223 23.3223 24.5 21.875 24.5H3.125C1.6777 24.5 0.5 23.3223 0.5 21.875V3.125C0.5 1.6777 1.6777 0.5 3.125 0.5Z" stroke="black"/>
</g>
<path d="M16.6875 12.5V13H17.1875H20.3552L19.1927 15.9062H17.1875H16.6875V16.4062V24.5H13V16.4062V15.9062H12.5H9.875V13H12.5H13V12.5V9.375C13 7.06208 14.8746 5.1875 17.1875 5.1875H19.8125V8.09375H18.75C18.6894 8.09375 18.6257 8.09327 18.561 8.09277C18.4147 8.09166 18.2627 8.0905 18.1263 8.09478C17.9265 8.10104 17.7042 8.11932 17.4975 8.18328C17.2816 8.25007 17.0595 8.37413 16.8999 8.60347C16.7441 8.82748 16.6875 9.0952 16.6875 9.375V12.5Z" fill="black" stroke="black"/>
</g>
<defs>
<filter id="filter0_d_2_33" x="-4" y="0" width="33" height="33" filterUnits="userSpaceOnUse" color-interpolation-filters="sRGB">
<feFlood flood-opacity="0" result="BackgroundImageFix"/>
<feColorMatrix in="SourceAlpha" type="matrix" values="0 0 0 0 0 0 0 0 0 0 0 0 0 0 0 0 0 0 127 0" result="hardAlpha"/>
<feOffset dy="4"/>
<feGaussianBlur stdDeviation="2"/>
<feColorMatrix type="matrix" values="0 0 0 0 0 0 0 0 0 0 0 0 0 0 0 0 0 0 0.25 0"/>
<feBlend mode="normal" in2="BackgroundImageFix" result="effect1_dropShadow_2_33"/>
<feBlend mode="normal" in="SourceGraphic" in2="effect1_dropShadow_2_33" result="shape"/>
</filter>
<clipPath id="clip0_2_33">
<rect width="25" height="25" fill="white"/>
</clipPath>
</defs>
</svg>
