<svg width="25" height="30" viewBox="0 0 25 30" fill="none" xmlns="http://www.w3.org/2000/svg">
<path d="M20.0978 18.8334C20.0717 18.8309 16.2912 18.9294 15.7291 15.3516C16.3537 14.9668 16.9293 14.4671 17.4365 13.8609C18.423 12.6815 19.0587 11.2019 19.2851 9.60158C19.3629 9.53943 19.4273 9.46211 19.4707 9.37096C19.8803 8.50906 20.0881 7.58876 20.0881 6.63548C20.0881 2.97669 16.9629 0 13.1214 0C12.1167 0 11.1419 0.204387 10.2213 0.608005C9.87016 0.631683 9.52603 0.686236 9.19601 0.770415C7.61826 1.17301 6.33435 2.20611 5.58072 3.67952C4.8491 5.11012 4.7049 6.79421 5.17482 8.42165C5.27411 8.76545 5.40035 9.1033 5.55006 9.42608C5.5906 9.51338 5.65102 9.58787 5.72357 9.64916C6.09035 12.1471 7.43615 14.2167 9.27118 15.3467C8.70736 18.9305 4.92825 18.831 4.90221 18.8335C2.18366 18.915 0 20.8922 0 23.3125V28.3509C0 28.7115 0.331047 29.0039 0.739452 29.0039H7.23282H17.767H24.2605C24.6688 29.0039 25 28.7115 25 28.3509V23.3125C24.9999 20.8921 22.8165 18.9148 20.0978 18.8334ZM9.60659 2.02523C9.87645 1.95634 10.1614 1.9155 10.4537 1.90389C10.5621 1.89958 10.6682 1.87426 10.7643 1.82962C11.513 1.48226 12.306 1.30614 13.1214 1.30614C16.1474 1.30614 18.6092 3.69686 18.6092 6.63548C18.6092 6.72368 18.6064 6.81143 18.602 6.89884C18.0151 6.37246 17.1996 6.04532 16.2991 6.04532H11.2593C10.9594 6.04532 10.6748 5.96216 10.4361 5.80479C10.2323 5.67048 10.0748 5.48994 9.98068 5.28272C9.83495 4.96221 9.47561 4.76173 9.08446 4.78343C8.6919 4.80552 8.36156 5.04627 8.26239 5.38271C7.97034 6.37382 7.38798 7.28676 6.589 8.0271C5.84557 5.32504 7.18727 2.64252 9.60659 2.02523ZM8.96323 13.3202C8.001 12.2821 7.37085 10.8802 7.17111 9.34547C8.10421 8.61103 8.84187 7.69707 9.32211 6.68329C9.39498 6.74266 9.47151 6.7988 9.55143 6.85154C10.0476 7.17857 10.6382 7.35151 11.2593 7.35151H16.2992C17.0123 7.35151 17.6269 7.72924 17.9012 8.26984C17.9011 8.27448 17.9004 8.2789 17.9004 8.28354C17.9004 11.9701 15.4783 14.9693 12.5011 14.9693C11.2054 14.9694 9.94887 14.3837 8.96323 13.3202ZM10.6623 15.988C11.2486 16.1753 11.8652 16.2755 12.5011 16.2755C13.1319 16.2755 13.7483 16.1785 14.3384 15.9914C14.6091 17.2372 15.3934 18.323 16.4889 19.0704L12.606 23.954C12.5806 23.9858 12.5454 24.002 12.5013 24.002C12.4572 24.002 12.422 23.9858 12.3967 23.954L8.51281 19.0694C9.60839 18.321 10.3924 17.2345 10.6623 15.988ZM23.521 27.6977H17.767H7.23282H1.4789V23.3124C1.4789 21.5607 3.09258 20.1356 5.07604 20.1356C5.10298 20.1356 6.29291 20.1101 7.23314 19.7328L11.1863 24.7045C11.4867 25.0825 11.9783 25.3081 12.5012 25.3081C12.5012 25.3081 12.5012 25.3081 12.5013 25.3081C13.0241 25.3081 13.5158 25.0825 13.8162 24.7045L17.7687 19.7336C18.841 20.1357 19.897 20.1357 19.9239 20.1357C21.9074 20.1357 23.521 21.5608 23.521 23.3125V27.6977Z" fill="white"/>
</svg>
