<svg width="88" height="54" viewBox="0 0 88 54" fill="none" xmlns="http://www.w3.org/2000/svg">
<path d="M4.80469 1.17969C4.74219 1.8125 4.6875 2.42969 4.64062 3.03125C4.59375 3.625 4.55078 4.21875 4.51172 4.8125C4.80859 4.79688 5.10156 4.78516 5.39062 4.77734C5.6875 4.76172 5.98828 4.73828 6.29297 4.70703L6.21094 7.08594C5.91406 7.07031 5.60938 7.0625 5.29688 7.0625C4.99219 7.0625 4.69141 7.0625 4.39453 7.0625C4.33203 8.1875 4.28516 9.28906 4.25391 10.3672C4.23047 11.4375 4.21875 12.5195 4.21875 13.6133C4.21875 14.1758 4.22266 14.7422 4.23047 15.3125C4.24609 15.875 4.26172 16.4453 4.27734 17.0234L1.69922 17.0703C1.75391 15.3906 1.80078 13.7305 1.83984 12.0898C1.87891 10.4414 1.89844 8.78125 1.89844 7.10938C1.60156 7.125 1.30078 7.14062 0.996094 7.15625C0.691406 7.16406 0.390625 7.17969 0.09375 7.20312L0.1875 4.63672C0.460938 4.67578 0.742188 4.70703 1.03125 4.73047C1.32031 4.75391 1.60156 4.77344 1.875 4.78906C1.875 4.17969 1.86719 3.58203 1.85156 2.99609C1.84375 2.41016 1.82812 1.8125 1.80469 1.20312L4.80469 1.17969Z" fill="white"/>
<path d="M14.0039 9.78125C13.7539 9.82031 13.4922 9.86719 13.2188 9.92188C12.9844 9.96875 12.7188 10.0312 12.4219 10.1094C12.125 10.1875 11.8281 10.2773 11.5312 10.3789C11.6094 9.98828 11.6602 9.64844 11.6836 9.35938C11.7148 9.0625 11.7305 8.79297 11.7305 8.55078C11.7305 8.12891 11.6914 7.80078 11.6133 7.56641C11.543 7.32422 11.4609 7.14453 11.3672 7.02734C11.2734 6.91016 11.1797 6.83984 11.0859 6.81641C11 6.79297 10.9414 6.78125 10.9102 6.78125C10.6602 6.78125 10.457 6.88672 10.3008 7.09766C10.1445 7.30078 10.0234 7.57422 9.9375 7.91797C9.85156 8.25391 9.79297 8.64062 9.76172 9.07812C9.73047 9.51562 9.71484 9.96484 9.71484 10.4258C9.71484 10.7539 9.71875 11.082 9.72656 11.4102C9.73438 11.7383 9.74609 12.0664 9.76172 12.3945L9.92578 17L7.21875 17.1875C7.21875 15.3047 7.19922 13.6094 7.16016 12.1016C7.12891 10.5859 7.09375 9.29297 7.05469 8.22266C7.00781 6.97266 6.95703 5.85938 6.90234 4.88281L9.21094 4.73047L9.32812 6.05469C9.53125 5.55469 9.76953 5.16016 10.043 4.87109C10.3242 4.57422 10.6016 4.35547 10.875 4.21484C11.1562 4.06641 11.4102 3.97266 11.6367 3.93359C11.8711 3.89453 12.0469 3.875 12.1641 3.875C12.5625 3.875 12.8867 4.00391 13.1367 4.26172C13.3867 4.51172 13.582 4.83594 13.7227 5.23438C13.8633 5.63281 13.957 6.07031 14.0039 6.54688C14.0586 7.02344 14.0859 7.48438 14.0859 7.92969C14.0859 8.28125 14.0742 8.61719 14.0508 8.9375C14.0352 9.25 14.0195 9.53125 14.0039 9.78125Z" fill="white"/>
<path d="M21.832 9.53516C21.832 10.7695 21.8242 12.0039 21.8086 13.2383C21.8008 14.4727 21.7773 15.7578 21.7383 17.0938L19.6992 16.9766V15.3945C19.4648 15.8164 19.1992 16.1406 18.9023 16.3672C18.6055 16.5859 18.3242 16.75 18.0586 16.8594C17.7461 16.9844 17.4375 17.0547 17.1328 17.0703C16.7578 17.0703 16.4062 16.9883 16.0781 16.8242C15.75 16.6523 15.4648 16.4258 15.2227 16.1445C14.9805 15.8633 14.7891 15.543 14.6484 15.1836C14.5156 14.8164 14.4492 14.4375 14.4492 14.0469C14.4492 13.6016 14.543 13.1641 14.7305 12.7344C14.9258 12.2969 15.2539 11.9023 15.7148 11.5508C16.332 11.0742 16.8672 10.6758 17.3203 10.3555C17.7734 10.0352 18.1484 9.74609 18.4453 9.48828C18.75 9.22266 18.9727 8.97266 19.1133 8.73828C19.2617 8.49609 19.3359 8.21875 19.3359 7.90625C19.3359 7.39062 19.25 7.00781 19.0781 6.75781C18.9062 6.5 18.6797 6.37109 18.3984 6.37109C18.2266 6.37109 18.0781 6.41797 17.9531 6.51172C17.8359 6.59766 17.7383 6.71484 17.6602 6.86328C17.5898 7.00391 17.5352 7.16406 17.4961 7.34375C17.4648 7.51562 17.4492 7.6875 17.4492 7.85938C17.4492 7.97656 17.4531 8.10547 17.4609 8.24609C17.4766 8.38672 17.5039 8.53516 17.543 8.69141L14.8477 8.73828C14.832 8.60547 14.8203 8.48047 14.8125 8.36328C14.8047 8.23828 14.8008 8.11719 14.8008 8C14.8008 7.51562 14.8828 7.03906 15.0469 6.57031C15.2109 6.09375 15.4492 5.67188 15.7617 5.30469C16.082 4.92969 16.4688 4.62891 16.9219 4.40234C17.375 4.17578 17.8945 4.0625 18.4805 4.0625C19.2383 4.0625 19.8359 4.22266 20.2734 4.54297C20.7188 4.85547 21.0547 5.26953 21.2812 5.78516C21.5156 6.30078 21.6641 6.88672 21.7266 7.54297C21.7969 8.19141 21.832 8.85547 21.832 9.53516ZM19.1953 12.8516C19.2344 12.6562 19.2695 12.4336 19.3008 12.1836C19.332 11.9727 19.3594 11.7188 19.3828 11.4219C19.4062 11.1172 19.4258 10.7773 19.4414 10.4023C19.3164 10.5742 19.1953 10.7266 19.0781 10.8594C18.9609 10.9922 18.8516 11.1094 18.75 11.2109C18.6328 11.3281 18.5234 11.4336 18.4219 11.5273C18.2422 11.6758 18.0508 11.8438 17.8477 12.0312C17.6445 12.2109 17.457 12.4023 17.2852 12.6055C17.1211 12.8086 16.9805 13.0195 16.8633 13.2383C16.7539 13.4492 16.6992 13.6562 16.6992 13.8594C16.6992 14.0781 16.7734 14.2812 16.9219 14.4688C17.0703 14.6484 17.2539 14.7383 17.4727 14.7383C17.6367 14.7383 17.8047 14.6914 17.9766 14.5977C18.1562 14.5039 18.3242 14.3711 18.4805 14.1992C18.6445 14.0273 18.7891 13.8281 18.9141 13.6016C19.0391 13.375 19.1328 13.125 19.1953 12.8516Z" fill="white"/>
<path d="M30.082 4.88281C29.8164 5.90625 29.5703 6.92188 29.3438 7.92969C29.125 8.92969 28.9141 9.93359 28.7109 10.9414C28.5156 11.9414 28.3242 12.9453 28.1367 13.9531C27.9492 14.9609 27.7578 15.9844 27.5625 17.0234L24.8789 17.0469C24.7539 16.0156 24.5977 14.9961 24.4102 13.9883C24.2227 12.9805 24.0234 11.9805 23.8125 10.9883C23.6016 9.98828 23.3867 8.98828 23.168 7.98828C22.9492 6.98828 22.75 5.97656 22.5703 4.95312L25.3828 4.92969C25.4141 5.60938 25.4688 6.30078 25.5469 7.00391C25.625 7.69922 25.7109 8.40234 25.8047 9.11328C25.9062 9.82422 26.0078 10.5391 26.1094 11.2578C26.2109 11.9688 26.3047 12.6758 26.3906 13.3789C26.4844 12.6758 26.5703 11.9609 26.6484 11.2344C26.7266 10.5078 26.8008 9.78125 26.8711 9.05469C26.9414 8.32812 27.0117 7.60547 27.082 6.88672C27.1523 6.16797 27.2266 5.46875 27.3047 4.78906L30.082 4.88281Z" fill="white"/>
<path d="M37.3477 16.6836C36.6211 16.9336 35.957 17.0977 35.3555 17.1758C34.7617 17.2539 34.2734 17.293 33.8906 17.293C33.4141 17.293 32.9961 17.1992 32.6367 17.0117C32.2773 16.8242 31.9648 16.5742 31.6992 16.2617C31.4414 15.9492 31.2266 15.5898 31.0547 15.1836C30.8828 14.7695 30.7461 14.3359 30.6445 13.8828C30.543 13.4297 30.4688 12.9727 30.4219 12.5117C30.3828 12.043 30.3633 11.6016 30.3633 11.1875C30.3633 10.1562 30.4453 9.20703 30.6094 8.33984C30.7734 7.46484 31.0117 6.71094 31.3242 6.07812C31.6367 5.44531 32.0234 4.95312 32.4844 4.60156C32.9453 4.24219 33.4688 4.0625 34.0547 4.0625C34.5391 4.0625 34.9805 4.18359 35.3789 4.42578C35.7773 4.66797 36.1172 5.03906 36.3984 5.53906C36.6797 6.03906 36.8945 6.67578 37.043 7.44922C37.1992 8.21484 37.2773 9.125 37.2773 10.1797C37.2773 10.4766 37.2695 10.7773 37.2539 11.082C37.2461 11.3867 37.2266 11.7031 37.1953 12.0312L33.0469 12.582C33.0781 12.8711 33.125 13.1445 33.1875 13.4023C33.2578 13.6602 33.3477 13.8906 33.457 14.0938C33.5742 14.2891 33.7109 14.4453 33.8672 14.5625C34.0234 14.6797 34.2148 14.7383 34.4414 14.7383C34.8633 14.7383 35.2852 14.7148 35.707 14.668C36.1289 14.6133 36.5703 14.5508 37.0312 14.4805L37.3477 16.6836ZM32.9766 10.5898L34.9219 10.2266V9.78125C34.9219 9.11719 34.8711 8.60547 34.7695 8.24609C34.668 7.87891 34.5586 7.60938 34.4414 7.4375C34.3008 7.23438 34.1406 7.11719 33.9609 7.08594C33.7344 7.10938 33.5547 7.21484 33.4219 7.40234C33.2891 7.58984 33.1875 7.83203 33.1172 8.12891C33.0547 8.41797 33.0156 8.74609 33 9.11328C32.9844 9.48047 32.9766 9.85156 32.9766 10.2266V10.5898Z" fill="white"/>
<path d="M41.168 16.6836C40.9648 16.6914 40.7344 16.707 40.4766 16.7305C40.2578 16.7461 40 16.7656 39.7031 16.7891C39.4141 16.8125 39.0938 16.8438 38.7422 16.8828C38.6719 14.2344 38.5977 11.8945 38.5195 9.86328C38.4414 7.82422 38.3711 6.10156 38.3086 4.69531C38.2305 3.05469 38.1523 1.62891 38.0742 0.417969L41.1211 0.277344C41.1211 2.04297 41.1211 3.63281 41.1211 5.04688C41.1211 6.45312 41.1211 7.70703 41.1211 8.80859C41.1289 9.90234 41.1328 10.8594 41.1328 11.6797C41.1406 12.4922 41.1445 13.1914 41.1445 13.7773C41.1523 15.1445 41.1602 16.1133 41.168 16.6836Z" fill="white"/>
<path d="M25.896 33.768C26.376 32.28 26.616 30.496 26.616 28.416C26.616 26.336 26.432 24.584 26.064 23.16C25.712 21.72 25.24 21 24.648 21C24.344 21 24.088 21.232 23.88 21.696C23.656 22.144 23.544 22.752 23.544 23.52C23.544 24.848 24.328 28.264 25.896 33.768ZM28.656 34.872C27.872 37.032 27.464 38.24 27.432 38.496C27.432 38.832 27.352 39.032 27.192 39.096C27.048 39.16 26.776 39.28 26.376 39.456L25.728 39.768C25.568 39.768 25.456 39.664 25.392 39.456C25.344 39.264 25.192 38.728 24.936 37.848C24.68 36.952 24.48 36.256 24.336 35.76C24.192 35.248 24 34.544 23.76 33.648C23.504 32.736 23.304 31.984 23.16 31.392C23 30.784 22.84 30.136 22.68 29.448C22.36 28.104 22.2 27.2 22.2 26.736C22.2 24.8 22.592 23.152 23.376 21.792C24.144 20.416 24.952 19.728 25.8 19.728C27.336 19.728 28.104 21.232 28.104 24.24C28.104 25.808 27.904 27.56 27.504 29.496C27.104 31.416 26.632 33.048 26.088 34.392L27.168 37.944C27.2 37.944 27.408 37.376 27.792 36.24C28.176 35.088 28.376 34.432 28.392 34.272C28.472 33.968 28.664 33.768 28.968 33.672C29.144 33.624 29.456 33.52 29.904 33.36C30.352 33.184 30.584 33.096 30.6 33.096C30.712 33.096 30.768 33.168 30.768 33.312C30.624 34.08 30.552 34.888 30.552 35.736C30.552 36.568 30.704 37.28 31.008 37.872C31.312 38.464 31.744 38.76 32.304 38.76C33.232 38.76 34.312 37.96 35.544 36.36L35.712 36.648C34.976 37.736 34.216 38.56 33.432 39.12C32.664 39.696 31.912 39.984 31.176 39.984C30.456 39.984 29.856 39.584 29.376 38.784C28.896 37.984 28.656 36.816 28.656 35.28V34.872Z" fill="white"/>
<path d="M35.4722 33.624C35.3922 34.296 35.3522 34.848 35.3522 35.28C35.3522 36.8 35.6402 37.984 36.2162 38.832C36.8082 39.664 37.5202 40.08 38.3522 40.08C39.2002 40.08 40.0402 39.784 40.8722 39.192C41.7042 38.616 42.4802 37.768 43.2002 36.648L43.0322 36.36C41.7842 38.072 40.6322 38.928 39.5762 38.928C38.9042 38.928 38.3602 38.568 37.9442 37.848C37.5282 37.128 37.3202 36.152 37.3202 34.92C37.3202 34.28 37.3762 33.632 37.4882 32.976C37.4882 32.832 37.4242 32.76 37.2962 32.76C37.1842 32.76 36.6482 32.952 35.6882 33.336C35.5442 33.384 35.4722 33.48 35.4722 33.624ZM37.4642 28.464C37.7202 28.736 37.8482 29.064 37.8482 29.448C37.8482 29.832 37.7202 30.16 37.4642 30.432C37.2242 30.704 36.9282 30.84 36.5762 30.84C36.2402 30.84 35.9522 30.704 35.7122 30.432C35.4722 30.16 35.3522 29.832 35.3522 29.448C35.3522 29.064 35.4722 28.736 35.7122 28.464C35.9522 28.192 36.2402 28.056 36.5762 28.056C36.9282 28.056 37.2242 28.192 37.4642 28.464Z" fill="white"/>
<path d="M50.2928 36.36L50.4608 36.648C49.7888 37.72 48.9808 38.536 48.0368 39.096C47.0928 39.672 46.1968 39.96 45.3488 39.96C43.6368 39.96 42.5008 39.224 41.9408 37.752C41.9408 37.672 42.1248 37.408 42.4928 36.96C42.8608 36.512 43.1008 36.288 43.2128 36.288C43.3408 36.288 43.4128 36.328 43.4288 36.408C43.5248 36.92 43.7888 37.464 44.2208 38.04C44.6688 38.616 45.0768 38.904 45.4448 38.904C46.0208 38.904 46.3168 38.744 46.3328 38.424C46.3328 37.928 45.7488 37.176 44.5808 36.168C44.1488 35.784 43.7488 35.296 43.3808 34.704C43.0288 34.096 42.8528 33.472 42.8528 32.832C42.8528 32.704 42.8768 32.616 42.9248 32.568C43.6288 31.928 44.0928 31.608 44.3168 31.608C44.4928 31.608 44.5808 31.744 44.5808 32.016C44.5968 32.608 44.8448 33.224 45.3248 33.864C45.8208 34.488 46.3008 35.088 46.7648 35.664C47.2448 36.24 47.4848 36.816 47.4848 37.392C47.4848 37.952 47.2048 38.456 46.6448 38.904C47.9568 38.872 49.1728 38.024 50.2928 36.36Z" fill="white"/>
<path d="M51.2464 27.432C51.5024 34.952 52.6624 38.712 54.7264 38.712C55.6064 38.712 56.6624 37.928 57.8944 36.36L58.0624 36.648C56.5584 38.888 55.1184 40.008 53.7424 40.008C52.3824 40.008 51.2784 38.968 50.4304 36.888C49.5824 34.792 49.1344 32.008 49.0864 28.536C47.1024 29.576 46.0464 30.096 45.9184 30.096C45.7104 30.096 45.6064 29.984 45.6064 29.76C45.6064 29.536 45.7184 29.36 45.9424 29.232L49.0864 27.552C49.1184 26.336 49.1744 25.184 49.2544 24.096C49.2544 23.952 49.3264 23.856 49.4704 23.808C50.4304 23.424 50.9664 23.232 51.0784 23.232C51.2064 23.232 51.2704 23.304 51.2704 23.448C51.2384 24.248 51.2224 24.976 51.2224 25.632V26.4L52.4704 25.728C55.8464 23.92 57.5744 23.016 57.6544 23.016C57.7504 23.016 57.8224 23.04 57.8704 23.088C58.2224 23.44 58.3984 23.64 58.3984 23.688C58.3984 23.736 58.3504 23.8 58.2544 23.88C58.1584 23.944 57.7984 24.136 57.1744 24.456C56.5664 24.76 55.6464 25.216 54.4144 25.824C53.1984 26.432 52.1424 26.968 51.2464 27.432Z" fill="white"/>
<path d="M63.0881 37.296C63.2961 36.832 63.4001 36.248 63.4001 35.544C63.4001 34.84 63.3041 34.288 63.1121 33.888C62.9361 33.472 62.7281 33.264 62.4881 33.264C62.3121 33.264 62.1601 33.376 62.0321 33.6C61.9041 33.824 61.8401 34.144 61.8401 34.56C61.8401 34.96 61.9521 35.424 62.1761 35.952C62.4001 36.48 62.7041 36.928 63.0881 37.296ZM59.1281 36.072C59.1281 36.776 59.3121 37.376 59.6801 37.872C60.0641 38.352 60.5601 38.592 61.1681 38.592C61.7761 38.592 62.2721 38.376 62.6561 37.944C62.0321 37.512 61.5201 36.904 61.1201 36.12C60.7201 35.336 60.5201 34.488 60.5201 33.576C60.5201 33.48 60.5361 33.352 60.5681 33.192C59.6081 33.864 59.1281 34.824 59.1281 36.072ZM60.2561 39.96C59.3281 39.96 58.6081 39.648 58.0961 39.024C57.6001 38.4 57.3521 37.608 57.3521 36.648C57.3521 35.688 57.6561 34.808 58.2641 34.008C58.8721 33.192 59.7041 32.76 60.7601 32.712C61.0161 32.312 61.3921 32.112 61.8881 32.112C62.4001 32.112 62.8561 32.408 63.2561 33C63.6721 33.576 63.8801 34.328 63.8801 35.256C63.8801 36.184 63.7441 36.976 63.4721 37.632C63.8721 37.92 64.2881 38.064 64.7201 38.064C65.5681 38.064 66.3601 37.496 67.0961 36.36L67.2881 36.6C66.5041 37.88 65.5521 38.52 64.4321 38.52C63.9841 38.52 63.5601 38.424 63.1601 38.232C62.8081 38.776 62.3681 39.2 61.8401 39.504C61.3281 39.808 60.8001 39.96 60.2561 39.96Z" fill="white"/>
<path d="M68.8191 35.04L68.3631 35.016C68.2031 35.016 68.0911 35.088 68.0271 35.232C67.8351 35.712 67.5311 36.256 67.1151 36.864L66.9231 36.6C67.2431 36.168 67.4911 35.624 67.6671 34.968C67.6671 34.84 67.6111 34.752 67.4991 34.704C66.7791 34.464 66.4191 33.832 66.4191 32.808C66.4191 32.584 66.6111 32.376 66.9951 32.184C67.3791 31.976 67.6991 31.872 67.9551 31.872C68.2111 31.872 68.3391 31.984 68.3391 32.208C68.3391 33.408 68.8991 34.008 70.0191 34.008C70.2911 34.008 70.5071 33.984 70.6671 33.936C70.8431 33.872 70.9391 33.84 70.9551 33.84C71.1151 33.84 71.1951 33.96 71.1951 34.2C71.1951 34.424 71.1311 34.584 71.0031 34.68C70.8911 34.76 70.7631 34.944 70.6191 35.232C70.4751 35.504 70.4031 35.824 70.4031 36.192C70.4031 36.912 70.6111 37.48 71.0271 37.896C71.4591 38.296 71.9871 38.496 72.6111 38.496C73.2511 38.496 73.8831 38.312 74.5071 37.944C75.1311 37.576 75.6751 37.048 76.1391 36.36L76.3071 36.648C75.7471 37.624 74.9711 38.408 73.9791 39C72.9871 39.592 72.0991 39.888 71.3151 39.888C69.7151 39.888 68.9151 39.16 68.9151 37.704C68.9151 37.432 69.0111 37.064 69.2031 36.6C69.3951 36.136 69.5871 35.744 69.7791 35.424L70.0671 34.944C70.0671 34.88 70.0431 34.848 69.9951 34.848C69.4831 34.976 69.0911 35.04 68.8191 35.04Z" fill="white"/>
<path d="M81.25 46.92C81.25 48.248 81.6419 49.496 82.4259 50.664C83.2099 51.832 83.938 52.416 84.61 52.416C85.186 52.416 85.4739 51.904 85.4739 50.88C85.4739 50.128 85.194 48.976 84.6339 47.424C84.4259 46.848 84.114 45.992 83.698 44.856C83.282 43.736 82.9539 42.832 82.714 42.144C81.7379 43.632 81.25 45.224 81.25 46.92ZM86.53 48.768C86.53 50.336 86.266 51.504 85.7379 52.272C85.2099 53.056 84.5379 53.448 83.722 53.448C82.6819 53.448 81.722 52.888 80.8419 51.768C79.978 50.664 79.546 49.288 79.546 47.64C79.658 46.504 79.962 45.456 80.458 44.496C80.97 43.536 81.65 42.544 82.498 41.52C81.954 40.032 81.5779 38.856 81.3699 37.992C80.6819 38.872 79.8899 39.312 78.9939 39.312C78.0979 39.312 77.3139 38.856 76.6419 37.944C75.9699 37.032 75.6339 35.72 75.6339 34.008C75.6339 33.832 75.7619 33.712 76.0179 33.648C76.7859 33.488 77.226 33.408 77.338 33.408C77.53 33.408 77.6259 33.504 77.6259 33.696C77.6259 35.152 77.954 36.296 78.61 37.128C79.026 37.64 79.5459 37.896 80.1699 37.896C80.5059 37.896 80.8579 37.744 81.2259 37.44C80.9859 36.368 80.866 35.472 80.866 34.752C80.866 34.016 81.034 33.48 81.3699 33.144C82.0579 32.744 82.4419 32.544 82.5219 32.544C82.6819 32.544 82.762 32.664 82.762 32.904C82.762 34.648 83.082 36.488 83.722 38.424L84.13 39.696C85.33 38.4 86.242 37.288 86.866 36.36L87.034 36.648C86.6499 37.256 86.298 37.752 85.978 38.136C85.658 38.52 85.3139 38.92 84.9459 39.336C84.5939 39.752 84.3699 40.016 84.2739 40.128C85.4419 43.472 86.082 45.432 86.194 46.008C86.418 47.144 86.53 48.064 86.53 48.768Z" fill="white"/>
</svg>
